<mxfile host="app.diagrams.net" modified="2024-03-04T22:27:30.871Z" agent="Mozilla/5.0 (Windows NT 10.0; Win64; x64) AppleWebKit/537.36 (KHTML, like Gecko) Chrome/122.0.0.0 Safari/537.36 Edg/122.0.0.0" etag="wdRgLrAW_7pdmwF64Ce-" version="24.0.1" type="github">
  <diagram name="Page-1" id="c4acf3e9-155e-7222-9cf6-157b1a14988f">
    <mxGraphModel dx="1554" dy="831" grid="1" gridSize="10" guides="1" tooltips="1" connect="1" arrows="1" fold="1" page="1" pageScale="1" pageWidth="850" pageHeight="1100" background="none" math="0" shadow="0">
      <root>
        <mxCell id="0" />
        <mxCell id="1" parent="0" />
        <mxCell id="1gfTSkaandOdAtRSf5dF-1" value="Entity" style="swimlane;fontStyle=1;align=center;verticalAlign=top;childLayout=stackLayout;horizontal=1;startSize=26;horizontalStack=0;resizeParent=1;resizeParentMax=0;resizeLast=0;collapsible=1;marginBottom=0;whiteSpace=wrap;html=1;" vertex="1" parent="1">
          <mxGeometry x="40" y="383" width="160" height="86" as="geometry">
            <mxRectangle x="340" y="300" width="70" height="30" as="alternateBounds" />
          </mxGeometry>
        </mxCell>
        <mxCell id="1gfTSkaandOdAtRSf5dF-2" value="+ID: UUID" style="text;strokeColor=none;fillColor=none;align=left;verticalAlign=top;spacingLeft=4;spacingRight=4;overflow=hidden;rotatable=0;points=[[0,0.5],[1,0.5]];portConstraint=eastwest;whiteSpace=wrap;html=1;" vertex="1" parent="1gfTSkaandOdAtRSf5dF-1">
          <mxGeometry y="26" width="160" height="26" as="geometry" />
        </mxCell>
        <mxCell id="1gfTSkaandOdAtRSf5dF-3" value="" style="line;strokeWidth=1;fillColor=none;align=left;verticalAlign=middle;spacingTop=-1;spacingLeft=3;spacingRight=3;rotatable=0;labelPosition=right;points=[];portConstraint=eastwest;strokeColor=inherit;" vertex="1" parent="1gfTSkaandOdAtRSf5dF-1">
          <mxGeometry y="52" width="160" height="8" as="geometry" />
        </mxCell>
        <mxCell id="1gfTSkaandOdAtRSf5dF-4" value="+getID(): UUID" style="text;strokeColor=none;fillColor=none;align=left;verticalAlign=top;spacingLeft=4;spacingRight=4;overflow=hidden;rotatable=0;points=[[0,0.5],[1,0.5]];portConstraint=eastwest;whiteSpace=wrap;html=1;" vertex="1" parent="1gfTSkaandOdAtRSf5dF-1">
          <mxGeometry y="60" width="160" height="26" as="geometry" />
        </mxCell>
        <mxCell id="1gfTSkaandOdAtRSf5dF-7" value="Extends" style="endArrow=block;endSize=16;endFill=0;html=1;rounded=0;" edge="1" parent="1" source="1gfTSkaandOdAtRSf5dF-12" target="1gfTSkaandOdAtRSf5dF-1">
          <mxGeometry width="160" relative="1" as="geometry">
            <mxPoint x="370" y="270" as="sourcePoint" />
            <mxPoint x="170" y="275.5" as="targetPoint" />
          </mxGeometry>
        </mxCell>
        <mxCell id="1gfTSkaandOdAtRSf5dF-12" value="Child" style="swimlane;fontStyle=0;childLayout=stackLayout;horizontal=1;startSize=26;fillColor=none;horizontalStack=0;resizeParent=1;resizeParentMax=0;resizeLast=0;collapsible=1;marginBottom=0;whiteSpace=wrap;html=1;" vertex="1" parent="1">
          <mxGeometry x="380" y="374" width="140" height="104" as="geometry" />
        </mxCell>
        <mxCell id="1gfTSkaandOdAtRSf5dF-13" value="+ name: String" style="text;strokeColor=none;fillColor=none;align=left;verticalAlign=top;spacingLeft=4;spacingRight=4;overflow=hidden;rotatable=0;points=[[0,0.5],[1,0.5]];portConstraint=eastwest;whiteSpace=wrap;html=1;" vertex="1" parent="1gfTSkaandOdAtRSf5dF-12">
          <mxGeometry y="26" width="140" height="26" as="geometry" />
        </mxCell>
        <mxCell id="1gfTSkaandOdAtRSf5dF-14" value="+ age: int" style="text;strokeColor=none;fillColor=none;align=left;verticalAlign=top;spacingLeft=4;spacingRight=4;overflow=hidden;rotatable=0;points=[[0,0.5],[1,0.5]];portConstraint=eastwest;whiteSpace=wrap;html=1;" vertex="1" parent="1gfTSkaandOdAtRSf5dF-12">
          <mxGeometry y="52" width="140" height="26" as="geometry" />
        </mxCell>
        <mxCell id="1gfTSkaandOdAtRSf5dF-27" value="+ tracks: Track[]" style="text;strokeColor=none;fillColor=none;align=left;verticalAlign=top;spacingLeft=4;spacingRight=4;overflow=hidden;rotatable=0;points=[[0,0.5],[1,0.5]];portConstraint=eastwest;whiteSpace=wrap;html=1;" vertex="1" parent="1gfTSkaandOdAtRSf5dF-12">
          <mxGeometry y="78" width="140" height="26" as="geometry" />
        </mxCell>
        <mxCell id="1gfTSkaandOdAtRSf5dF-17" value="User" style="swimlane;fontStyle=0;childLayout=stackLayout;horizontal=1;startSize=26;fillColor=none;horizontalStack=0;resizeParent=1;resizeParentMax=0;resizeLast=0;collapsible=1;marginBottom=0;whiteSpace=wrap;html=1;" vertex="1" parent="1">
          <mxGeometry x="380" y="230" width="140" height="78" as="geometry" />
        </mxCell>
        <mxCell id="1gfTSkaandOdAtRSf5dF-18" value="+ username: String" style="text;strokeColor=none;fillColor=none;align=left;verticalAlign=top;spacingLeft=4;spacingRight=4;overflow=hidden;rotatable=0;points=[[0,0.5],[1,0.5]];portConstraint=eastwest;whiteSpace=wrap;html=1;" vertex="1" parent="1gfTSkaandOdAtRSf5dF-17">
          <mxGeometry y="26" width="140" height="26" as="geometry" />
        </mxCell>
        <mxCell id="1gfTSkaandOdAtRSf5dF-19" value="+ password: String" style="text;strokeColor=none;fillColor=none;align=left;verticalAlign=top;spacingLeft=4;spacingRight=4;overflow=hidden;rotatable=0;points=[[0,0.5],[1,0.5]];portConstraint=eastwest;whiteSpace=wrap;html=1;" vertex="1" parent="1gfTSkaandOdAtRSf5dF-17">
          <mxGeometry y="52" width="140" height="26" as="geometry" />
        </mxCell>
        <mxCell id="1gfTSkaandOdAtRSf5dF-20" value="Track" style="swimlane;fontStyle=0;childLayout=stackLayout;horizontal=1;startSize=26;fillColor=none;horizontalStack=0;resizeParent=1;resizeParentMax=0;resizeLast=0;collapsible=1;marginBottom=0;whiteSpace=wrap;html=1;" vertex="1" parent="1">
          <mxGeometry x="380" y="530" width="140" height="164" as="geometry" />
        </mxCell>
        <mxCell id="1gfTSkaandOdAtRSf5dF-29" value="+ children: Child[]" style="text;strokeColor=none;fillColor=none;align=left;verticalAlign=top;spacingLeft=4;spacingRight=4;overflow=hidden;rotatable=0;points=[[0,0.5],[1,0.5]];portConstraint=eastwest;whiteSpace=wrap;html=1;" vertex="1" parent="1gfTSkaandOdAtRSf5dF-20">
          <mxGeometry y="26" width="140" height="28" as="geometry" />
        </mxCell>
        <mxCell id="1gfTSkaandOdAtRSf5dF-21" value="+ name: String" style="text;strokeColor=none;fillColor=none;align=left;verticalAlign=top;spacingLeft=4;spacingRight=4;overflow=hidden;rotatable=0;points=[[0,0.5],[1,0.5]];portConstraint=eastwest;whiteSpace=wrap;html=1;" vertex="1" parent="1gfTSkaandOdAtRSf5dF-20">
          <mxGeometry y="54" width="140" height="26" as="geometry" />
        </mxCell>
        <mxCell id="1gfTSkaandOdAtRSf5dF-22" value="+ minimumAge: int" style="text;strokeColor=none;fillColor=none;align=left;verticalAlign=top;spacingLeft=4;spacingRight=4;overflow=hidden;rotatable=0;points=[[0,0.5],[1,0.5]];portConstraint=eastwest;whiteSpace=wrap;html=1;" vertex="1" parent="1gfTSkaandOdAtRSf5dF-20">
          <mxGeometry y="80" width="140" height="28" as="geometry" />
        </mxCell>
        <mxCell id="1gfTSkaandOdAtRSf5dF-25" value="+ maximumAge: int" style="text;strokeColor=none;fillColor=none;align=left;verticalAlign=top;spacingLeft=4;spacingRight=4;overflow=hidden;rotatable=0;points=[[0,0.5],[1,0.5]];portConstraint=eastwest;whiteSpace=wrap;html=1;" vertex="1" parent="1gfTSkaandOdAtRSf5dF-20">
          <mxGeometry y="108" width="140" height="28" as="geometry" />
        </mxCell>
        <mxCell id="1gfTSkaandOdAtRSf5dF-26" value="+ distance: int" style="text;strokeColor=none;fillColor=none;align=left;verticalAlign=top;spacingLeft=4;spacingRight=4;overflow=hidden;rotatable=0;points=[[0,0.5],[1,0.5]];portConstraint=eastwest;whiteSpace=wrap;html=1;" vertex="1" parent="1gfTSkaandOdAtRSf5dF-20">
          <mxGeometry y="136" width="140" height="28" as="geometry" />
        </mxCell>
        <mxCell id="1gfTSkaandOdAtRSf5dF-23" value="Extends" style="endArrow=block;endSize=16;endFill=0;html=1;rounded=0;" edge="1" parent="1" source="1gfTSkaandOdAtRSf5dF-17" target="1gfTSkaandOdAtRSf5dF-1">
          <mxGeometry width="160" relative="1" as="geometry">
            <mxPoint x="350" y="280" as="sourcePoint" />
            <mxPoint x="310" y="390" as="targetPoint" />
          </mxGeometry>
        </mxCell>
        <mxCell id="1gfTSkaandOdAtRSf5dF-24" value="Extends" style="endArrow=block;endSize=16;endFill=0;html=1;rounded=0;" edge="1" parent="1" source="1gfTSkaandOdAtRSf5dF-20" target="1gfTSkaandOdAtRSf5dF-1">
          <mxGeometry width="160" relative="1" as="geometry">
            <mxPoint x="320" y="654" as="sourcePoint" />
            <mxPoint x="140" y="546" as="targetPoint" />
          </mxGeometry>
        </mxCell>
        <mxCell id="1gfTSkaandOdAtRSf5dF-36" value="Relation" style="endArrow=open;html=1;endSize=12;startArrow=open;startSize=14;startFill=0;edgeStyle=orthogonalEdgeStyle;rounded=0;exitX=1;exitY=0.5;exitDx=0;exitDy=0;entryX=1;entryY=0.5;entryDx=0;entryDy=0;" edge="1" parent="1" source="1gfTSkaandOdAtRSf5dF-29" target="1gfTSkaandOdAtRSf5dF-27">
          <mxGeometry relative="1" as="geometry">
            <mxPoint x="310" y="390" as="sourcePoint" />
            <mxPoint x="640" y="490" as="targetPoint" />
            <Array as="points">
              <mxPoint x="550" y="540" />
              <mxPoint x="550" y="465" />
            </Array>
          </mxGeometry>
        </mxCell>
        <mxCell id="1gfTSkaandOdAtRSf5dF-37" value="n" style="edgeLabel;resizable=0;html=1;align=left;verticalAlign=top;" connectable="0" vertex="1" parent="1gfTSkaandOdAtRSf5dF-36">
          <mxGeometry x="-1" relative="1" as="geometry" />
        </mxCell>
        <mxCell id="1gfTSkaandOdAtRSf5dF-38" value="m" style="edgeLabel;resizable=0;html=1;align=right;verticalAlign=top;" connectable="0" vertex="1" parent="1gfTSkaandOdAtRSf5dF-36">
          <mxGeometry x="1" relative="1" as="geometry">
            <mxPoint x="10" y="5" as="offset" />
          </mxGeometry>
        </mxCell>
        <mxCell id="1gfTSkaandOdAtRSf5dF-42" value="RepoUser" style="swimlane;fontStyle=0;childLayout=stackLayout;horizontal=1;startSize=26;fillColor=none;horizontalStack=0;resizeParent=1;resizeParentMax=0;resizeLast=0;collapsible=1;marginBottom=0;whiteSpace=wrap;html=1;" vertex="1" parent="1">
          <mxGeometry x="630" y="217" width="140" height="104" as="geometry" />
        </mxCell>
        <mxCell id="1gfTSkaandOdAtRSf5dF-43" value="+ url: String" style="text;strokeColor=none;fillColor=none;align=left;verticalAlign=top;spacingLeft=4;spacingRight=4;overflow=hidden;rotatable=0;points=[[0,0.5],[1,0.5]];portConstraint=eastwest;whiteSpace=wrap;html=1;" vertex="1" parent="1gfTSkaandOdAtRSf5dF-42">
          <mxGeometry y="26" width="140" height="26" as="geometry" />
        </mxCell>
        <mxCell id="1gfTSkaandOdAtRSf5dF-44" value="+ username: String" style="text;strokeColor=none;fillColor=none;align=left;verticalAlign=top;spacingLeft=4;spacingRight=4;overflow=hidden;rotatable=0;points=[[0,0.5],[1,0.5]];portConstraint=eastwest;whiteSpace=wrap;html=1;" vertex="1" parent="1gfTSkaandOdAtRSf5dF-42">
          <mxGeometry y="52" width="140" height="26" as="geometry" />
        </mxCell>
        <mxCell id="1gfTSkaandOdAtRSf5dF-45" value="+ password: String" style="text;strokeColor=none;fillColor=none;align=left;verticalAlign=top;spacingLeft=4;spacingRight=4;overflow=hidden;rotatable=0;points=[[0,0.5],[1,0.5]];portConstraint=eastwest;whiteSpace=wrap;html=1;" vertex="1" parent="1gfTSkaandOdAtRSf5dF-42">
          <mxGeometry y="78" width="140" height="26" as="geometry" />
        </mxCell>
        <mxCell id="1gfTSkaandOdAtRSf5dF-46" value="RepoChild" style="swimlane;fontStyle=0;childLayout=stackLayout;horizontal=1;startSize=26;fillColor=none;horizontalStack=0;resizeParent=1;resizeParentMax=0;resizeLast=0;collapsible=1;marginBottom=0;whiteSpace=wrap;html=1;" vertex="1" parent="1">
          <mxGeometry x="630" y="374" width="140" height="104" as="geometry" />
        </mxCell>
        <mxCell id="1gfTSkaandOdAtRSf5dF-47" value="+ url: String" style="text;strokeColor=none;fillColor=none;align=left;verticalAlign=top;spacingLeft=4;spacingRight=4;overflow=hidden;rotatable=0;points=[[0,0.5],[1,0.5]];portConstraint=eastwest;whiteSpace=wrap;html=1;" vertex="1" parent="1gfTSkaandOdAtRSf5dF-46">
          <mxGeometry y="26" width="140" height="26" as="geometry" />
        </mxCell>
        <mxCell id="1gfTSkaandOdAtRSf5dF-48" value="+ username: String" style="text;strokeColor=none;fillColor=none;align=left;verticalAlign=top;spacingLeft=4;spacingRight=4;overflow=hidden;rotatable=0;points=[[0,0.5],[1,0.5]];portConstraint=eastwest;whiteSpace=wrap;html=1;" vertex="1" parent="1gfTSkaandOdAtRSf5dF-46">
          <mxGeometry y="52" width="140" height="26" as="geometry" />
        </mxCell>
        <mxCell id="1gfTSkaandOdAtRSf5dF-49" value="+ password: String" style="text;strokeColor=none;fillColor=none;align=left;verticalAlign=top;spacingLeft=4;spacingRight=4;overflow=hidden;rotatable=0;points=[[0,0.5],[1,0.5]];portConstraint=eastwest;whiteSpace=wrap;html=1;" vertex="1" parent="1gfTSkaandOdAtRSf5dF-46">
          <mxGeometry y="78" width="140" height="26" as="geometry" />
        </mxCell>
        <mxCell id="1gfTSkaandOdAtRSf5dF-50" value="RepoTrack" style="swimlane;fontStyle=0;childLayout=stackLayout;horizontal=1;startSize=26;fillColor=none;horizontalStack=0;resizeParent=1;resizeParentMax=0;resizeLast=0;collapsible=1;marginBottom=0;whiteSpace=wrap;html=1;" vertex="1" parent="1">
          <mxGeometry x="630" y="560" width="140" height="104" as="geometry" />
        </mxCell>
        <mxCell id="1gfTSkaandOdAtRSf5dF-51" value="+ url: String" style="text;strokeColor=none;fillColor=none;align=left;verticalAlign=top;spacingLeft=4;spacingRight=4;overflow=hidden;rotatable=0;points=[[0,0.5],[1,0.5]];portConstraint=eastwest;whiteSpace=wrap;html=1;" vertex="1" parent="1gfTSkaandOdAtRSf5dF-50">
          <mxGeometry y="26" width="140" height="26" as="geometry" />
        </mxCell>
        <mxCell id="1gfTSkaandOdAtRSf5dF-52" value="+ username: String" style="text;strokeColor=none;fillColor=none;align=left;verticalAlign=top;spacingLeft=4;spacingRight=4;overflow=hidden;rotatable=0;points=[[0,0.5],[1,0.5]];portConstraint=eastwest;whiteSpace=wrap;html=1;" vertex="1" parent="1gfTSkaandOdAtRSf5dF-50">
          <mxGeometry y="52" width="140" height="26" as="geometry" />
        </mxCell>
        <mxCell id="1gfTSkaandOdAtRSf5dF-53" value="+ password: String" style="text;strokeColor=none;fillColor=none;align=left;verticalAlign=top;spacingLeft=4;spacingRight=4;overflow=hidden;rotatable=0;points=[[0,0.5],[1,0.5]];portConstraint=eastwest;whiteSpace=wrap;html=1;" vertex="1" parent="1gfTSkaandOdAtRSf5dF-50">
          <mxGeometry y="78" width="140" height="26" as="geometry" />
        </mxCell>
        <mxCell id="1gfTSkaandOdAtRSf5dF-55" value="Use" style="endArrow=open;endSize=12;dashed=1;html=1;rounded=0;" edge="1" parent="1" source="1gfTSkaandOdAtRSf5dF-42" target="1gfTSkaandOdAtRSf5dF-17">
          <mxGeometry width="160" relative="1" as="geometry">
            <mxPoint x="500" y="360" as="sourcePoint" />
            <mxPoint x="660" y="360" as="targetPoint" />
          </mxGeometry>
        </mxCell>
        <mxCell id="1gfTSkaandOdAtRSf5dF-56" value="Use" style="endArrow=open;endSize=12;dashed=1;html=1;rounded=0;" edge="1" parent="1" source="1gfTSkaandOdAtRSf5dF-46" target="1gfTSkaandOdAtRSf5dF-12">
          <mxGeometry width="160" relative="1" as="geometry">
            <mxPoint x="640" y="288" as="sourcePoint" />
            <mxPoint x="530" y="283" as="targetPoint" />
          </mxGeometry>
        </mxCell>
        <mxCell id="1gfTSkaandOdAtRSf5dF-57" value="Use" style="endArrow=open;endSize=12;dashed=1;html=1;rounded=0;" edge="1" parent="1" source="1gfTSkaandOdAtRSf5dF-50" target="1gfTSkaandOdAtRSf5dF-20">
          <mxGeometry width="160" relative="1" as="geometry">
            <mxPoint x="650" y="298" as="sourcePoint" />
            <mxPoint x="540" y="293" as="targetPoint" />
          </mxGeometry>
        </mxCell>
        <mxCell id="1gfTSkaandOdAtRSf5dF-58" value="ServiceUser" style="swimlane;fontStyle=0;childLayout=stackLayout;horizontal=1;startSize=26;fillColor=none;horizontalStack=0;resizeParent=1;resizeParentMax=0;resizeLast=0;collapsible=1;marginBottom=0;whiteSpace=wrap;html=1;" vertex="1" parent="1">
          <mxGeometry x="870" y="243" width="140" height="52" as="geometry" />
        </mxCell>
        <mxCell id="1gfTSkaandOdAtRSf5dF-59" value="+ repo: RepoUser" style="text;strokeColor=none;fillColor=none;align=left;verticalAlign=top;spacingLeft=4;spacingRight=4;overflow=hidden;rotatable=0;points=[[0,0.5],[1,0.5]];portConstraint=eastwest;whiteSpace=wrap;html=1;" vertex="1" parent="1gfTSkaandOdAtRSf5dF-58">
          <mxGeometry y="26" width="140" height="26" as="geometry" />
        </mxCell>
        <mxCell id="1gfTSkaandOdAtRSf5dF-62" value="ServiceChild" style="swimlane;fontStyle=0;childLayout=stackLayout;horizontal=1;startSize=26;fillColor=none;horizontalStack=0;resizeParent=1;resizeParentMax=0;resizeLast=0;collapsible=1;marginBottom=0;whiteSpace=wrap;html=1;" vertex="1" parent="1">
          <mxGeometry x="870" y="400" width="140" height="52" as="geometry" />
        </mxCell>
        <mxCell id="1gfTSkaandOdAtRSf5dF-63" value="+ repo: RepoChild" style="text;strokeColor=none;fillColor=none;align=left;verticalAlign=top;spacingLeft=4;spacingRight=4;overflow=hidden;rotatable=0;points=[[0,0.5],[1,0.5]];portConstraint=eastwest;whiteSpace=wrap;html=1;" vertex="1" parent="1gfTSkaandOdAtRSf5dF-62">
          <mxGeometry y="26" width="140" height="26" as="geometry" />
        </mxCell>
        <mxCell id="1gfTSkaandOdAtRSf5dF-64" value="ServiceTrack" style="swimlane;fontStyle=0;childLayout=stackLayout;horizontal=1;startSize=26;fillColor=none;horizontalStack=0;resizeParent=1;resizeParentMax=0;resizeLast=0;collapsible=1;marginBottom=0;whiteSpace=wrap;html=1;" vertex="1" parent="1">
          <mxGeometry x="870" y="586" width="140" height="52" as="geometry" />
        </mxCell>
        <mxCell id="1gfTSkaandOdAtRSf5dF-65" value="+ repo: RepoTrack" style="text;strokeColor=none;fillColor=none;align=left;verticalAlign=top;spacingLeft=4;spacingRight=4;overflow=hidden;rotatable=0;points=[[0,0.5],[1,0.5]];portConstraint=eastwest;whiteSpace=wrap;html=1;" vertex="1" parent="1gfTSkaandOdAtRSf5dF-64">
          <mxGeometry y="26" width="140" height="26" as="geometry" />
        </mxCell>
        <mxCell id="1gfTSkaandOdAtRSf5dF-66" value="Use" style="endArrow=open;endSize=12;dashed=1;html=1;rounded=0;" edge="1" parent="1" source="1gfTSkaandOdAtRSf5dF-58" target="1gfTSkaandOdAtRSf5dF-42">
          <mxGeometry width="160" relative="1" as="geometry">
            <mxPoint x="500" y="470" as="sourcePoint" />
            <mxPoint x="830" y="200" as="targetPoint" />
          </mxGeometry>
        </mxCell>
        <mxCell id="1gfTSkaandOdAtRSf5dF-67" value="Use" style="endArrow=open;endSize=12;dashed=1;html=1;rounded=0;" edge="1" parent="1" source="1gfTSkaandOdAtRSf5dF-62" target="1gfTSkaandOdAtRSf5dF-46">
          <mxGeometry width="160" relative="1" as="geometry">
            <mxPoint x="880" y="283" as="sourcePoint" />
            <mxPoint x="780" y="288" as="targetPoint" />
          </mxGeometry>
        </mxCell>
        <mxCell id="1gfTSkaandOdAtRSf5dF-68" value="Use" style="endArrow=open;endSize=12;dashed=1;html=1;rounded=0;" edge="1" parent="1" source="1gfTSkaandOdAtRSf5dF-64" target="1gfTSkaandOdAtRSf5dF-50">
          <mxGeometry width="160" relative="1" as="geometry">
            <mxPoint x="890" y="293" as="sourcePoint" />
            <mxPoint x="790" y="298" as="targetPoint" />
          </mxGeometry>
        </mxCell>
        <mxCell id="1gfTSkaandOdAtRSf5dF-69" value="LoginUI" style="swimlane;fontStyle=0;childLayout=stackLayout;horizontal=1;startSize=26;fillColor=none;horizontalStack=0;resizeParent=1;resizeParentMax=0;resizeLast=0;collapsible=1;marginBottom=0;whiteSpace=wrap;html=1;" vertex="1" parent="1">
          <mxGeometry x="1115" y="239" width="160" height="60" as="geometry" />
        </mxCell>
        <mxCell id="1gfTSkaandOdAtRSf5dF-70" value="+ serviceUser: ServiceUser" style="text;strokeColor=none;fillColor=none;align=left;verticalAlign=middle;spacingLeft=4;spacingRight=4;overflow=hidden;rotatable=0;points=[[0,0.5],[1,0.5]];portConstraint=eastwest;whiteSpace=wrap;html=1;" vertex="1" parent="1gfTSkaandOdAtRSf5dF-69">
          <mxGeometry y="26" width="160" height="34" as="geometry" />
        </mxCell>
        <mxCell id="1gfTSkaandOdAtRSf5dF-73" value="Use" style="endArrow=open;endSize=12;dashed=1;html=1;rounded=0;" edge="1" parent="1" source="1gfTSkaandOdAtRSf5dF-69" target="1gfTSkaandOdAtRSf5dF-58">
          <mxGeometry width="160" relative="1" as="geometry">
            <mxPoint x="880" y="279" as="sourcePoint" />
            <mxPoint x="780" y="279" as="targetPoint" />
          </mxGeometry>
        </mxCell>
        <mxCell id="1gfTSkaandOdAtRSf5dF-74" value="ServiceUI" style="swimlane;fontStyle=0;childLayout=stackLayout;horizontal=1;startSize=26;fillColor=none;horizontalStack=0;resizeParent=1;resizeParentMax=0;resizeLast=0;collapsible=1;marginBottom=0;whiteSpace=wrap;html=1;" vertex="1" parent="1">
          <mxGeometry x="1102.5" y="469" width="185" height="104" as="geometry" />
        </mxCell>
        <mxCell id="1gfTSkaandOdAtRSf5dF-75" value="+ serviceChild: ServiceChild" style="text;strokeColor=none;fillColor=none;align=left;verticalAlign=top;spacingLeft=4;spacingRight=4;overflow=hidden;rotatable=0;points=[[0,0.5],[1,0.5]];portConstraint=eastwest;whiteSpace=wrap;html=1;" vertex="1" parent="1gfTSkaandOdAtRSf5dF-74">
          <mxGeometry y="26" width="185" height="26" as="geometry" />
        </mxCell>
        <mxCell id="1gfTSkaandOdAtRSf5dF-76" value="+ serviceTrack: ServiceTrack" style="text;strokeColor=none;fillColor=none;align=left;verticalAlign=top;spacingLeft=4;spacingRight=4;overflow=hidden;rotatable=0;points=[[0,0.5],[1,0.5]];portConstraint=eastwest;whiteSpace=wrap;html=1;" vertex="1" parent="1gfTSkaandOdAtRSf5dF-74">
          <mxGeometry y="52" width="185" height="26" as="geometry" />
        </mxCell>
        <mxCell id="1gfTSkaandOdAtRSf5dF-77" value="+ observers: Observer[]" style="text;strokeColor=none;fillColor=none;align=left;verticalAlign=top;spacingLeft=4;spacingRight=4;overflow=hidden;rotatable=0;points=[[0,0.5],[1,0.5]];portConstraint=eastwest;whiteSpace=wrap;html=1;" vertex="1" parent="1gfTSkaandOdAtRSf5dF-74">
          <mxGeometry y="78" width="185" height="26" as="geometry" />
        </mxCell>
        <mxCell id="1gfTSkaandOdAtRSf5dF-79" value="Use" style="endArrow=open;endSize=12;dashed=1;html=1;rounded=0;" edge="1" parent="1" source="1gfTSkaandOdAtRSf5dF-74" target="1gfTSkaandOdAtRSf5dF-62">
          <mxGeometry width="160" relative="1" as="geometry">
            <mxPoint x="890" y="289" as="sourcePoint" />
            <mxPoint x="790" y="289" as="targetPoint" />
          </mxGeometry>
        </mxCell>
        <mxCell id="1gfTSkaandOdAtRSf5dF-80" value="Use" style="endArrow=open;endSize=12;dashed=1;html=1;rounded=0;" edge="1" parent="1" source="1gfTSkaandOdAtRSf5dF-74" target="1gfTSkaandOdAtRSf5dF-64">
          <mxGeometry width="160" relative="1" as="geometry">
            <mxPoint x="900" y="299" as="sourcePoint" />
            <mxPoint x="800" y="299" as="targetPoint" />
          </mxGeometry>
        </mxCell>
        <mxCell id="1gfTSkaandOdAtRSf5dF-81" value="GUI" style="swimlane;fontStyle=0;childLayout=stackLayout;horizontal=1;startSize=26;fillColor=none;horizontalStack=0;resizeParent=1;resizeParentMax=0;resizeLast=0;collapsible=1;marginBottom=0;whiteSpace=wrap;html=1;" vertex="1" parent="1">
          <mxGeometry x="1400" y="400" width="170" height="52" as="geometry" />
        </mxCell>
        <mxCell id="1gfTSkaandOdAtRSf5dF-82" value="+ masterService: ServiceUI" style="text;strokeColor=none;fillColor=none;align=left;verticalAlign=top;spacingLeft=4;spacingRight=4;overflow=hidden;rotatable=0;points=[[0,0.5],[1,0.5]];portConstraint=eastwest;whiteSpace=wrap;html=1;" vertex="1" parent="1gfTSkaandOdAtRSf5dF-81">
          <mxGeometry y="26" width="170" height="26" as="geometry" />
        </mxCell>
        <mxCell id="1gfTSkaandOdAtRSf5dF-85" value="" style="endArrow=none;html=1;rounded=0;edgeStyle=orthogonalEdgeStyle;" edge="1" parent="1" source="1gfTSkaandOdAtRSf5dF-69" target="1gfTSkaandOdAtRSf5dF-81">
          <mxGeometry relative="1" as="geometry">
            <mxPoint x="1370" y="573" as="sourcePoint" />
            <mxPoint x="1530" y="573" as="targetPoint" />
          </mxGeometry>
        </mxCell>
        <mxCell id="1gfTSkaandOdAtRSf5dF-86" value="parent" style="edgeLabel;resizable=0;html=1;align=left;verticalAlign=bottom;" connectable="0" vertex="1" parent="1gfTSkaandOdAtRSf5dF-85">
          <mxGeometry x="-1" relative="1" as="geometry" />
        </mxCell>
        <mxCell id="1gfTSkaandOdAtRSf5dF-87" value="child" style="edgeLabel;resizable=0;html=1;align=right;verticalAlign=bottom;" connectable="0" vertex="1" parent="1gfTSkaandOdAtRSf5dF-85">
          <mxGeometry x="1" relative="1" as="geometry" />
        </mxCell>
        <mxCell id="1gfTSkaandOdAtRSf5dF-88" value="1" style="endArrow=open;html=1;endSize=12;startArrow=diamondThin;startSize=14;startFill=0;edgeStyle=orthogonalEdgeStyle;align=left;verticalAlign=bottom;rounded=0;exitX=1;exitY=0.5;exitDx=0;exitDy=0;" edge="1" parent="1" source="1gfTSkaandOdAtRSf5dF-77" target="1gfTSkaandOdAtRSf5dF-81">
          <mxGeometry x="-1" y="3" relative="1" as="geometry">
            <mxPoint x="900" y="470" as="sourcePoint" />
            <mxPoint x="1060" y="470" as="targetPoint" />
          </mxGeometry>
        </mxCell>
        <mxCell id="1gfTSkaandOdAtRSf5dF-89" value="Use" style="endArrow=open;endSize=12;dashed=1;html=1;rounded=0;" edge="1" parent="1" source="1gfTSkaandOdAtRSf5dF-81" target="1gfTSkaandOdAtRSf5dF-74">
          <mxGeometry width="160" relative="1" as="geometry">
            <mxPoint x="900" y="470" as="sourcePoint" />
            <mxPoint x="1060" y="470" as="targetPoint" />
          </mxGeometry>
        </mxCell>
        <mxCell id="1gfTSkaandOdAtRSf5dF-90" value="«interface»&lt;br&gt;&lt;b&gt;Observable&lt;/b&gt;" style="html=1;whiteSpace=wrap;" vertex="1" parent="1">
          <mxGeometry x="1140" y="650" width="110" height="50" as="geometry" />
        </mxCell>
        <mxCell id="1gfTSkaandOdAtRSf5dF-91" value="" style="endArrow=block;dashed=1;endFill=0;endSize=12;html=1;rounded=0;" edge="1" parent="1" source="1gfTSkaandOdAtRSf5dF-74" target="1gfTSkaandOdAtRSf5dF-90">
          <mxGeometry width="160" relative="1" as="geometry">
            <mxPoint x="900" y="470" as="sourcePoint" />
            <mxPoint x="1060" y="470" as="targetPoint" />
          </mxGeometry>
        </mxCell>
        <mxCell id="1gfTSkaandOdAtRSf5dF-93" value="" style="endArrow=block;dashed=1;endFill=0;endSize=12;html=1;rounded=0;" edge="1" parent="1" source="1gfTSkaandOdAtRSf5dF-42" target="1gfTSkaandOdAtRSf5dF-98">
          <mxGeometry width="160" relative="1" as="geometry">
            <mxPoint x="690" y="480" as="sourcePoint" />
            <mxPoint x="575" y="780" as="targetPoint" />
            <Array as="points">
              <mxPoint x="575" y="320" />
            </Array>
          </mxGeometry>
        </mxCell>
        <mxCell id="1gfTSkaandOdAtRSf5dF-94" value="" style="endArrow=block;dashed=1;endFill=0;endSize=12;html=1;rounded=0;" edge="1" parent="1" source="1gfTSkaandOdAtRSf5dF-50" target="1gfTSkaandOdAtRSf5dF-98">
          <mxGeometry width="160" relative="1" as="geometry">
            <mxPoint x="690" y="480" as="sourcePoint" />
            <mxPoint x="575" y="780" as="targetPoint" />
            <Array as="points">
              <mxPoint x="575" y="670" />
            </Array>
          </mxGeometry>
        </mxCell>
        <mxCell id="1gfTSkaandOdAtRSf5dF-95" value="" style="endArrow=block;dashed=1;endFill=0;endSize=12;html=1;rounded=0;" edge="1" parent="1" source="1gfTSkaandOdAtRSf5dF-46" target="1gfTSkaandOdAtRSf5dF-98">
          <mxGeometry width="160" relative="1" as="geometry">
            <mxPoint x="690" y="480" as="sourcePoint" />
            <mxPoint x="575" y="780" as="targetPoint" />
            <Array as="points">
              <mxPoint x="575" y="500" />
            </Array>
          </mxGeometry>
        </mxCell>
        <mxCell id="1gfTSkaandOdAtRSf5dF-96" value="«interface»&lt;br&gt;&lt;b&gt;Observer&lt;/b&gt;" style="html=1;whiteSpace=wrap;" vertex="1" parent="1">
          <mxGeometry x="1460" y="650" width="110" height="50" as="geometry" />
        </mxCell>
        <mxCell id="1gfTSkaandOdAtRSf5dF-97" value="" style="endArrow=block;dashed=1;endFill=0;endSize=12;html=1;rounded=0;jumpStyle=none;strokeColor=default;edgeStyle=elbowEdgeStyle;" edge="1" parent="1" source="1gfTSkaandOdAtRSf5dF-81" target="1gfTSkaandOdAtRSf5dF-96">
          <mxGeometry width="160" relative="1" as="geometry">
            <mxPoint x="1210" y="520" as="sourcePoint" />
            <mxPoint x="1370" y="520" as="targetPoint" />
          </mxGeometry>
        </mxCell>
        <mxCell id="1gfTSkaandOdAtRSf5dF-98" value="«interface»&lt;br&gt;&lt;b&gt;Repository&amp;lt;Type&amp;gt;&lt;/b&gt;" style="swimlane;fontStyle=0;childLayout=stackLayout;horizontal=1;startSize=26;fillColor=none;horizontalStack=0;resizeParent=1;resizeParentMax=0;resizeLast=0;collapsible=1;marginBottom=0;whiteSpace=wrap;html=1;strokeColor=default;align=center;verticalAlign=middle;fontFamily=Helvetica;fontSize=12;fontColor=default;" vertex="1" parent="1">
          <mxGeometry x="510" y="770" width="130" height="130" as="geometry" />
        </mxCell>
        <mxCell id="1gfTSkaandOdAtRSf5dF-99" value="+ getAll(): Type[]" style="text;strokeColor=none;fillColor=none;align=left;verticalAlign=top;spacingLeft=4;spacingRight=4;overflow=hidden;rotatable=0;points=[[0,0.5],[1,0.5]];portConstraint=eastwest;whiteSpace=wrap;html=1;fontFamily=Helvetica;fontSize=12;fontColor=default;" vertex="1" parent="1gfTSkaandOdAtRSf5dF-98">
          <mxGeometry y="26" width="130" height="26" as="geometry" />
        </mxCell>
        <mxCell id="1gfTSkaandOdAtRSf5dF-100" value="+ delete(Type)" style="text;strokeColor=none;fillColor=none;align=left;verticalAlign=top;spacingLeft=4;spacingRight=4;overflow=hidden;rotatable=0;points=[[0,0.5],[1,0.5]];portConstraint=eastwest;whiteSpace=wrap;html=1;fontFamily=Helvetica;fontSize=12;fontColor=default;" vertex="1" parent="1gfTSkaandOdAtRSf5dF-98">
          <mxGeometry y="52" width="130" height="26" as="geometry" />
        </mxCell>
        <mxCell id="1gfTSkaandOdAtRSf5dF-101" value="+ update(Type)" style="text;strokeColor=none;fillColor=none;align=left;verticalAlign=top;spacingLeft=4;spacingRight=4;overflow=hidden;rotatable=0;points=[[0,0.5],[1,0.5]];portConstraint=eastwest;whiteSpace=wrap;html=1;fontFamily=Helvetica;fontSize=12;fontColor=default;" vertex="1" parent="1gfTSkaandOdAtRSf5dF-98">
          <mxGeometry y="78" width="130" height="26" as="geometry" />
        </mxCell>
        <mxCell id="1gfTSkaandOdAtRSf5dF-102" value="+ save(Type)" style="text;strokeColor=none;fillColor=none;align=left;verticalAlign=top;spacingLeft=4;spacingRight=4;overflow=hidden;rotatable=0;points=[[0,0.5],[1,0.5]];portConstraint=eastwest;whiteSpace=wrap;html=1;fontFamily=Helvetica;fontSize=12;fontColor=default;" vertex="1" parent="1gfTSkaandOdAtRSf5dF-98">
          <mxGeometry y="104" width="130" height="26" as="geometry" />
        </mxCell>
      </root>
    </mxGraphModel>
  </diagram>
</mxfile>
